<svg preserveAspectRatio="none" width="100%" height="100%" overflow="visible" style="display: block;" viewBox="0 0 45.0682 92.0006" fill="none" xmlns="http://www.w3.org/2000/svg">
<g id="left" opacity="0.15">
<foreignObject x="0" y="0" width="0" height="0"><div xmlns="http://www.w3.org/1999/xhtml" style="backdrop-filter:blur(2.8px);clip-path:url(#bgblur_0_0_50_clip_path);height:100%;width:100%"></div></foreignObject><path id="Union" data-figma-bg-blur-radius="5.60083" d="M11.3091 2.46639C11.4045 2.15831 11.7494 2.01398 12.0356 2.16267C13.0309 2.67981 13.8576 3.53513 14.3237 4.65096C14.5815 5.26821 14.7039 5.90793 14.7065 6.53767C15.0134 5.60408 15.3277 4.67538 15.6558 3.75252C15.7117 3.59808 15.8288 3.47157 15.978 3.39998C16.1275 3.32853 16.2982 3.31734 16.4536 3.37068C16.6091 3.42408 16.737 3.5378 16.811 3.68611C16.8848 3.83428 16.8988 4.00548 16.8481 4.1617C16.3518 5.71634 15.881 7.3216 15.4292 8.92635C15.247 9.58145 15.0686 10.2379 14.8921 10.8951C15.3233 10.5231 15.8267 10.2198 16.3911 10.0084C17.5234 9.58435 18.7128 9.60107 19.771 9.97224C20.0751 10.0791 20.2065 10.4292 20.0474 10.7095C19.4935 11.6849 18.6076 12.4796 17.4751 12.9039C16.427 13.2964 15.33 13.309 14.3335 13.0142C13.7429 15.3084 13.1935 17.614 12.6977 19.9283C13.0359 19.5797 13.425 19.2693 13.8618 19.0084C15.0482 18.3 16.389 18.076 17.6548 18.2769C18.0186 18.3348 18.2371 18.7007 18.1157 19.0484C17.6925 20.2585 16.86 21.3338 15.6733 22.0426C14.5589 22.708 13.3084 22.9456 12.1118 22.8053C11.6568 25.161 11.2631 27.5244 10.9468 29.8931C11.3056 29.3993 11.7418 28.9489 12.2534 28.5611C13.4925 27.6221 14.9644 27.206 16.4048 27.274C16.8189 27.2936 17.1091 27.6766 17.0161 28.0806C16.6925 29.4859 15.8939 30.7899 14.6548 31.7291C13.4359 32.6528 11.9925 33.0689 10.5747 33.0172C10.5692 33.0699 10.5635 33.1226 10.5581 33.1754C10.3801 35.08 10.3243 37.0192 10.3921 38.9635C10.7624 38.3632 11.2293 37.8083 11.7915 37.3228C13.0991 36.194 14.7022 35.6285 16.3042 35.6021C16.7646 35.5949 17.113 35.9983 17.0386 36.4527C16.7791 38.0341 15.986 39.5375 14.6782 40.6666C13.4989 41.6846 12.0795 42.2419 10.6372 42.3609C10.8471 44.2671 11.1788 46.1612 11.6343 48.0152C11.9764 47.2701 12.4416 46.566 13.0337 45.9351C14.3342 44.5497 16.0225 43.746 17.772 43.5328C18.2749 43.4717 18.7024 43.8737 18.6733 44.3795C18.5715 46.1392 17.8772 47.8746 16.5767 49.2603C15.4815 50.4269 14.1114 51.1784 12.6616 51.5142C13.3453 53.5044 14.1844 55.4224 15.1821 57.2301C15.4322 56.0956 15.9186 54.9939 16.6558 54.0006C17.8912 52.3361 19.6188 51.2529 21.4878 50.8023C22.0253 50.6728 22.54 51.0551 22.5718 51.607C22.6823 53.5268 22.1472 55.4949 20.9116 57.1597C19.8736 58.5582 18.4865 59.5419 16.9614 60.0885C18.3395 62.0575 19.9391 63.8443 21.7671 65.3863C21.5248 63.9279 21.6297 62.3905 22.144 60.8941C22.8742 58.7704 24.3042 57.0863 26.0864 56.0084C26.599 55.6985 27.2555 55.9234 27.4692 56.483C28.2125 58.429 28.3048 60.6363 27.5747 62.7603C26.9242 64.6522 25.7165 66.1924 24.2007 67.2681C25.9867 68.4821 27.8958 69.4147 29.8569 70.3795C29.6469 68.7378 29.8444 67.0212 30.5151 65.3795C31.4299 63.1407 33.0691 61.4168 35.0513 60.3668C35.6213 60.0649 36.3137 60.3478 36.5093 60.9625C37.1895 63.1003 37.1537 65.4792 36.2388 67.7183C35.5221 69.4719 34.3586 70.9062 32.936 71.9508C34.7065 72.9116 36.4874 74.0269 38.23 75.5152C38.2152 74.8428 38.2632 74.1591 38.3813 73.4713C38.8202 70.9175 40.1367 68.7345 41.9673 67.1773C42.4937 66.7297 43.2825 66.8657 43.6294 67.4635C44.8358 69.5425 45.3496 72.0391 44.9106 74.5933C44.513 76.9068 43.3919 78.9117 41.8237 80.4263C42.3989 81.706 42.8129 83.0286 43.1352 84.3316C43.5576 86.1217 43.8164 87.8132 43.8882 89.7564C43.8989 90.3505 43.672 90.9215 43.2524 91.3424C42.8332 91.7629 42.2554 91.9995 41.6519 92.0006C41.0481 92.0016 40.469 91.7666 40.0483 91.3472C39.6275 90.9279 39.3991 90.3582 39.4077 89.7642C39.4038 88.384 39.2271 86.751 38.9224 85.2828C38.4264 82.8903 37.5313 80.5863 36.0845 79.022C35.9961 78.9268 35.9045 78.8339 35.812 78.7408C34.8173 80.6263 33.2505 82.2328 31.2017 83.2652C28.8876 84.4311 26.3498 84.6702 24.0093 84.1246C23.3363 83.9677 22.9756 83.253 23.2495 82.6187C24.2035 80.4125 25.9058 78.5144 28.2202 77.3482C29.6136 76.6463 31.0879 76.2827 32.5513 76.2222C30.7957 75.1157 28.8054 74.096 26.814 72.9976C25.5162 74.7165 23.6554 76.0294 21.4097 76.6158C19.0696 77.2266 16.7063 76.949 14.6772 75.9928C14.094 75.7177 13.9055 74.9945 14.2798 74.4693C15.5824 72.6427 17.5077 71.2443 19.8481 70.6334C20.7098 70.4085 21.5745 70.3043 22.4243 70.3101C21.7112 69.8041 21.0234 69.2686 20.3765 68.691C19.4222 67.8772 18.53 67.0192 17.6968 66.1236C17.6655 66.1594 17.6328 66.1951 17.5952 66.2271C16.0098 67.5773 13.9605 68.4016 11.7153 68.4234C9.46993 68.445 7.40494 67.6607 5.79345 66.3414C5.33005 65.962 5.32305 65.268 5.7788 64.8795C7.36458 63.5285 9.41463 62.7029 11.6606 62.6812C13.0211 62.6682 14.3142 62.9533 15.481 63.4722C14.1135 61.6479 12.952 59.7034 11.981 57.6734C11.9194 57.7155 11.8522 57.7521 11.7778 57.7789C9.96905 58.4294 7.93142 58.4748 5.98486 57.7633C4.03809 57.0515 2.50928 55.7027 1.54638 54.0387C1.2695 53.5601 1.48914 52.9584 2.00927 52.7711C3.81865 52.1199 5.8579 52.0738 7.80517 52.7857C8.8909 53.1828 9.84545 53.7792 10.645 54.5172C9.80395 52.2466 9.17647 49.8968 8.74267 47.5113C8.70302 47.524 8.66235 47.5358 8.61962 47.5426C6.87927 47.8183 5.03571 47.5092 3.40478 46.5347C1.77381 45.56 0.628126 44.083 0.0463826 42.4195C-0.120774 41.9411 0.180656 41.4374 0.681148 41.358C2.42204 41.0818 4.26557 41.39 5.89697 42.3648C6.88788 42.957 7.69827 43.7354 8.31298 44.6275C8.02033 42.1182 7.93354 39.5887 8.02685 37.0875C6.57894 37.0685 5.12397 36.6103 3.87646 35.6754C2.49413 34.6393 1.59911 33.1947 1.23095 31.6353C1.1253 31.187 1.44482 30.7603 1.90478 30.7359C3.50503 30.6514 5.14335 31.1049 6.52587 32.1412C7.22082 32.6622 7.79165 33.2869 8.23486 33.9771C8.26948 33.6239 8.30743 33.2716 8.34912 32.9205C8.61082 30.9834 8.92681 29.0587 9.28662 27.1451C9.18494 27.1609 9.07759 27.1549 8.97119 27.1187C7.6063 26.6548 6.38967 25.729 5.58056 24.4019C4.77142 23.0745 4.50528 21.5682 4.71826 20.1422C4.77957 19.7322 5.18994 19.4817 5.58252 19.6148C6.94814 20.0786 8.16574 21.0048 8.97509 22.3326C9.3997 23.0293 9.67282 23.7753 9.80712 24.5328C10.3346 22.0204 10.9349 19.5272 11.5913 17.0513C10.4363 16.6266 9.4102 15.8267 8.71728 14.6959C7.99532 13.5174 7.7553 12.1789 7.94189 10.9107C7.99577 10.5463 8.36029 10.3233 8.70947 10.441C9.92421 10.8506 11.0079 11.6716 11.73 12.8502C12.0082 13.3044 12.2141 13.7826 12.352 14.2711C12.8965 12.3442 13.471 10.4275 14.0679 8.5201C14.0834 8.47113 14.0982 8.42157 14.1138 8.37264C13.999 8.4 13.8743 8.39089 13.7583 8.33064C12.7635 7.81351 11.9372 6.95872 11.4712 5.84334C11.0051 4.72749 10.9775 3.53783 11.3091 2.46639Z" fill="var(--fill-0, black)"/>
</g>
<defs>
<clipPath id="bgblur_0_0_50_clip_path" transform="translate(0 0)"><path d="M11.3091 2.46639C11.4045 2.15831 11.7494 2.01398 12.0356 2.16267C13.0309 2.67981 13.8576 3.53513 14.3237 4.65096C14.5815 5.26821 14.7039 5.90793 14.7065 6.53767C15.0134 5.60408 15.3277 4.67538 15.6558 3.75252C15.7117 3.59808 15.8288 3.47157 15.978 3.39998C16.1275 3.32853 16.2982 3.31734 16.4536 3.37068C16.6091 3.42408 16.737 3.5378 16.811 3.68611C16.8848 3.83428 16.8988 4.00548 16.8481 4.1617C16.3518 5.71634 15.881 7.3216 15.4292 8.92635C15.247 9.58145 15.0686 10.2379 14.8921 10.8951C15.3233 10.5231 15.8267 10.2198 16.3911 10.0084C17.5234 9.58435 18.7128 9.60107 19.771 9.97224C20.0751 10.0791 20.2065 10.4292 20.0474 10.7095C19.4935 11.6849 18.6076 12.4796 17.4751 12.9039C16.427 13.2964 15.33 13.309 14.3335 13.0142C13.7429 15.3084 13.1935 17.614 12.6977 19.9283C13.0359 19.5797 13.425 19.2693 13.8618 19.0084C15.0482 18.3 16.389 18.076 17.6548 18.2769C18.0186 18.3348 18.2371 18.7007 18.1157 19.0484C17.6925 20.2585 16.86 21.3338 15.6733 22.0426C14.5589 22.708 13.3084 22.9456 12.1118 22.8053C11.6568 25.161 11.2631 27.5244 10.9468 29.8931C11.3056 29.3993 11.7418 28.9489 12.2534 28.5611C13.4925 27.6221 14.9644 27.206 16.4048 27.274C16.8189 27.2936 17.1091 27.6766 17.0161 28.0806C16.6925 29.4859 15.8939 30.7899 14.6548 31.7291C13.4359 32.6528 11.9925 33.0689 10.5747 33.0172C10.5692 33.0699 10.5635 33.1226 10.5581 33.1754C10.3801 35.08 10.3243 37.0192 10.3921 38.9635C10.7624 38.3632 11.2293 37.8083 11.7915 37.3228C13.0991 36.194 14.7022 35.6285 16.3042 35.6021C16.7646 35.5949 17.113 35.9983 17.0386 36.4527C16.7791 38.0341 15.986 39.5375 14.6782 40.6666C13.4989 41.6846 12.0795 42.2419 10.6372 42.3609C10.8471 44.2671 11.1788 46.1612 11.6343 48.0152C11.9764 47.2701 12.4416 46.566 13.0337 45.9351C14.3342 44.5497 16.0225 43.746 17.772 43.5328C18.2749 43.4717 18.7024 43.8737 18.6733 44.3795C18.5715 46.1392 17.8772 47.8746 16.5767 49.2603C15.4815 50.4269 14.1114 51.1784 12.6616 51.5142C13.3453 53.5044 14.1844 55.4224 15.1821 57.2301C15.4322 56.0956 15.9186 54.9939 16.6558 54.0006C17.8912 52.3361 19.6188 51.2529 21.4878 50.8023C22.0253 50.6728 22.54 51.0551 22.5718 51.607C22.6823 53.5268 22.1472 55.4949 20.9116 57.1597C19.8736 58.5582 18.4865 59.5419 16.9614 60.0885C18.3395 62.0575 19.9391 63.8443 21.7671 65.3863C21.5248 63.9279 21.6297 62.3905 22.144 60.8941C22.8742 58.7704 24.3042 57.0863 26.0864 56.0084C26.599 55.6985 27.2555 55.9234 27.4692 56.483C28.2125 58.429 28.3048 60.6363 27.5747 62.7603C26.9242 64.6522 25.7165 66.1924 24.2007 67.2681C25.9867 68.4821 27.8958 69.4147 29.8569 70.3795C29.6469 68.7378 29.8444 67.0212 30.5151 65.3795C31.4299 63.1407 33.0691 61.4168 35.0513 60.3668C35.6213 60.0649 36.3137 60.3478 36.5093 60.9625C37.1895 63.1003 37.1537 65.4792 36.2388 67.7183C35.5221 69.4719 34.3586 70.9062 32.936 71.9508C34.7065 72.9116 36.4874 74.0269 38.23 75.5152C38.2152 74.8428 38.2632 74.1591 38.3813 73.4713C38.8202 70.9175 40.1367 68.7345 41.9673 67.1773C42.4937 66.7297 43.2825 66.8657 43.6294 67.4635C44.8358 69.5425 45.3496 72.0391 44.9106 74.5933C44.513 76.9068 43.3919 78.9117 41.8237 80.4263C42.3989 81.706 42.8129 83.0286 43.1352 84.3316C43.5576 86.1217 43.8164 87.8132 43.8882 89.7564C43.8989 90.3505 43.672 90.9215 43.2524 91.3424C42.8332 91.7629 42.2554 91.9995 41.6519 92.0006C41.0481 92.0016 40.469 91.7666 40.0483 91.3472C39.6275 90.9279 39.3991 90.3582 39.4077 89.7642C39.4038 88.384 39.2271 86.751 38.9224 85.2828C38.4264 82.8903 37.5313 80.5863 36.0845 79.022C35.9961 78.9268 35.9045 78.8339 35.812 78.7408C34.8173 80.6263 33.2505 82.2328 31.2017 83.2652C28.8876 84.4311 26.3498 84.6702 24.0093 84.1246C23.3363 83.9677 22.9756 83.253 23.2495 82.6187C24.2035 80.4125 25.9058 78.5144 28.2202 77.3482C29.6136 76.6463 31.0879 76.2827 32.5513 76.2222C30.7957 75.1157 28.8054 74.096 26.814 72.9976C25.5162 74.7165 23.6554 76.0294 21.4097 76.6158C19.0696 77.2266 16.7063 76.949 14.6772 75.9928C14.094 75.7177 13.9055 74.9945 14.2798 74.4693C15.5824 72.6427 17.5077 71.2443 19.8481 70.6334C20.7098 70.4085 21.5745 70.3043 22.4243 70.3101C21.7112 69.8041 21.0234 69.2686 20.3765 68.691C19.4222 67.8772 18.53 67.0192 17.6968 66.1236C17.6655 66.1594 17.6328 66.1951 17.5952 66.2271C16.0098 67.5773 13.9605 68.4016 11.7153 68.4234C9.46993 68.445 7.40494 67.6607 5.79345 66.3414C5.33005 65.962 5.32305 65.268 5.7788 64.8795C7.36458 63.5285 9.41463 62.7029 11.6606 62.6812C13.0211 62.6682 14.3142 62.9533 15.481 63.4722C14.1135 61.6479 12.952 59.7034 11.981 57.6734C11.9194 57.7155 11.8522 57.7521 11.7778 57.7789C9.96905 58.4294 7.93142 58.4748 5.98486 57.7633C4.03809 57.0515 2.50928 55.7027 1.54638 54.0387C1.2695 53.5601 1.48914 52.9584 2.00927 52.7711C3.81865 52.1199 5.8579 52.0738 7.80517 52.7857C8.8909 53.1828 9.84545 53.7792 10.645 54.5172C9.80395 52.2466 9.17647 49.8968 8.74267 47.5113C8.70302 47.524 8.66235 47.5358 8.61962 47.5426C6.87927 47.8183 5.03571 47.5092 3.40478 46.5347C1.77381 45.56 0.628126 44.083 0.0463826 42.4195C-0.120774 41.9411 0.180656 41.4374 0.681148 41.358C2.42204 41.0818 4.26557 41.39 5.89697 42.3648C6.88788 42.957 7.69827 43.7354 8.31298 44.6275C8.02033 42.1182 7.93354 39.5887 8.02685 37.0875C6.57894 37.0685 5.12397 36.6103 3.87646 35.6754C2.49413 34.6393 1.59911 33.1947 1.23095 31.6353C1.1253 31.187 1.44482 30.7603 1.90478 30.7359C3.50503 30.6514 5.14335 31.1049 6.52587 32.1412C7.22082 32.6622 7.79165 33.2869 8.23486 33.9771C8.26948 33.6239 8.30743 33.2716 8.34912 32.9205C8.61082 30.9834 8.92681 29.0587 9.28662 27.1451C9.18494 27.1609 9.07759 27.1549 8.97119 27.1187C7.6063 26.6548 6.38967 25.729 5.58056 24.4019C4.77142 23.0745 4.50528 21.5682 4.71826 20.1422C4.77957 19.7322 5.18994 19.4817 5.58252 19.6148C6.94814 20.0786 8.16574 21.0048 8.97509 22.3326C9.3997 23.0293 9.67282 23.7753 9.80712 24.5328C10.3346 22.0204 10.9349 19.5272 11.5913 17.0513C10.4363 16.6266 9.4102 15.8267 8.71728 14.6959C7.99532 13.5174 7.7553 12.1789 7.94189 10.9107C7.99577 10.5463 8.36029 10.3233 8.70947 10.441C9.92421 10.8506 11.0079 11.6716 11.73 12.8502C12.0082 13.3044 12.2141 13.7826 12.352 14.2711C12.8965 12.3442 13.471 10.4275 14.0679 8.5201C14.0834 8.47113 14.0982 8.42157 14.1138 8.37264C13.999 8.4 13.8743 8.39089 13.7583 8.33064C12.7635 7.81351 11.9372 6.95872 11.4712 5.84334C11.0051 4.72749 10.9775 3.53783 11.3091 2.46639Z"/>
</clipPath></defs>
</svg>
